<svg xmlns="http://www.w3.org/2000/svg" data-name="Layer 1" width="852.55783" height="182.23606" viewBox="0 0 852.55783 182.23606" xmlns:xlink="http://www.w3.org/1999/xlink"><path d="M239.51282,409.51278c-20.504,6.842-36.24208,26.20581-38.74845,47.67548s8.34817,43.93793,26.72487,55.31886C232.2027,480.56507,236.91616,448.623,239.51282,409.51278Z" transform="translate(-173.72108 -358.88197)" fill="#5d4037"/><path d="M500.43516,442.13076c5.89361-10.96372,21.36126-15.44332,32.20173-9.326s15.00173,21.67368,8.66321,32.38634l-56.18263-20.38561C493.93749,442.18993,502.75751,439.57435,500.43516,442.13076Z" transform="translate(-173.72108 -358.88197)" fill="#5d4037"/><path d="M715.54812,401.04322c-19.09781,2.42656-36.093,17.00416-41.399,35.50988s1.38286,39.874,16.29342,52.05143C714.67692,467.21793,722.06084,428.972,715.54812,401.04322Z" transform="translate(-173.72108 -358.88197)" fill="#5d4037"/><path d="M987.36544,456.43235c1.86149,12.64069,3.67922,25.84235-.39283,37.95312s-16.01458,22.60817-28.6175,20.50614-19.71349-21.11917-9.34045-28.57922C963.06949,476.2045,977.1243,466.09662,987.36544,456.43235Z" transform="translate(-173.72108 -358.88197)" fill="#5d4037"/><path d="M314.38512,446.95391c-16.99662-18.046-54.18295-19.09846-77.40231-6.1475-.46961.34342-1.76363.96882-.53275.47984a61.11417,61.11417,0,0,1,9.86946-2.62177c8.44056-1.86605,23.59678-.92809,28.03293.05435,8.74047,1.54928,14.33056,3.33981,20.30235,6.43665,6.629,3.46627,7.59067,4.43966,12.79778,10.47863,2.94447,4.12906,5.549,7.75731,5.02182,16.78944-.66154,8.418-2.25314,18.1101-8.54638,26.87272-.12772.642-8.35284,9.51421-13.60749,13.771-2.52759,1.92767-5.21823,3.62807-7.89489,5.33752a59.65971,59.65971,0,0,1-5.82722,3.02931c-15.82637,6.71334-32.09867,7.83794-43.47651,5.9187a46.52008,46.52008,0,0,1-11.44887-3.37927,69.51464,69.51464,0,0,1-13.86722-8.03866,45.68777,45.68777,0,0,1-4.09552-3.90412c-.7245-.67168-3.29873-3.70637-4.04494-4.54307-10.5493-14.759-14.27118-24.52415-14.77738-41.06578-.17973-19.65211,13.02344-41.38265,31.29866-53.32382,10.44885-7.00393,20.36244-9.35591,33.85817-11.515-12.73589.05292-25.74857,1.00649-37.27906,6.90716a73.75767,73.75767,0,0,0-34.80923,37.22838c-5.24029,12.92855-5.34828,27.43516-1.8038,40.81807,5.98507,20.45051,18.72473,40.25052,39.08609,48.55645,15.74243,7.56779,33.97172,7.15514,50.69838,3.41909,20.18181-4.44468,37.85361-17.28165,49.545-34.178,5.01536-8.03077,7.64448-17.31609,8.6445-26.68268C325.83112,466.16825,323.00523,455.03912,314.38512,446.95391Z" transform="translate(-173.72108 -358.88197)"/><path d="M224.71885,460.82876c-7.74762.192-7.72753,11.5425.00018,11.7556C232.46683,472.39234,232.44674,461.04177,224.71885,460.82876Z" transform="translate(-173.72108 -358.88197)"/><path d="M270.54645,451.18082c-7.74762.192-7.72735,11.5426.00018,11.75561C278.29443,462.74441,278.27416,451.39383,270.54645,451.18082Z" transform="translate(-173.72108 -358.88197)"/><path d="M252.05472,476.90859c-7.74762.192-7.72753,11.5425,0,11.7556C259.8027,488.47217,259.78225,477.1216,252.05472,476.90859Z" transform="translate(-173.72108 -358.88197)"/><path d="M284.4386,480.59585c-.00753-.85267-.07713-4.615-.25919-3.25461a31.61727,31.61727,0,0,1-6.82617,15.43982c-6.13288,7.292-13.48946,10.25978-21.579,12.47894-10.23449,2.78015-15.88969,1.01536-23.73633-6.28472,3.54394,4.92738,7.51354,9.47053,13.72,10.795,14.00965,2.25547,30.22849-4.57805,36.08262-17.991A24.903,24.903,0,0,0,284.4386,480.59585Z" transform="translate(-173.72108 -358.88197)"/><path d="M569.83707,440.84417c-1.52721-8.69481-7.51407-15.9331-14.79137-20.64155-17.80866-11.282-43.02233-10.802-60.6604.61222-3.533,2.51261-7.15533,5.1037-9.87377,8.51911a37.99991,37.99991,0,0,0-5.10272,10.33181c-.29759.79231-1.357,5.1185-.66656,3.17846a41.78473,41.78473,0,0,1,5.44209-9.25367c2.56885-3.49846,6.412-5.64578,10.16616-7.65578,9.66443-4.96388,18.53549-6.18561,28.90129-5.519,13.37609,1.13492,28.74361,7.27,33.70929,18.089.60486,1.46981.45418.53875,1.48954,4.53741.08754.76522.17274,1.53107.212,2.30059a48.81513,48.81513,0,0,1-.18583,7.71031c-3.22447,18.00938-11.43775,28.01553-26.13118,41.70185-11.98342,10.75738-32.37061,17.9545-44.99691,16.03625-10.92025-1.73-13.64892-3.33811-23.02044-8.661-13.13823-6.998-25.73135-20.19634-29.32228-29.661-3.31523-8.56118-2.935-10.761-3.60152-19.69839.06709-9.74443.18727-13.93036,2.606-22.41082,2.637-8.33786,9.07644-18.49648,18.07952-25.94122a82.90856,82.90856,0,0,1,25.50139-12.91052c-10.36329,2.05959-20.725,5.07868-29.67673,10.849a61.55153,61.55153,0,0,0-21.29054,25.48238c-5.55492,13.73583-7.03191,32.33007-2.61243,46.53972,5.08083,15.10295,16.79823,26.68949,29.80911,35.35184,8.5584,5.386,17.48291,10.71316,27.58449,12.47858,27.84853,5.67242,55.47822-10.71935,72.3439-32.014C565.155,476.68822,572.644,458.71113,569.83707,440.84417Z" transform="translate(-173.72108 -358.88197)"/><path d="M476.669,453.25325c-7.74763.192-7.72736,11.5425.00017,11.7556C484.417,464.81683,484.39691,453.46626,476.669,453.25325Z" transform="translate(-173.72108 -358.88197)"/><path d="M520.5042,438.49946c-7.74762.192-7.72735,11.5425.00018,11.7556C528.25218,450.063,528.23209,438.71247,520.5042,438.49946Z" transform="translate(-173.72108 -358.88197)"/><path d="M509.25093,459.40074c-7.74762.192-7.72753,11.5426.00018,11.75561C516.99891,470.96433,516.97882,459.61384,509.25093,459.40074Z" transform="translate(-173.72108 -358.88197)"/><path d="M526.41186,474.30575c-11.67973-2.129-23.37381,8.65311-22.07871,20.48091a21.6462,21.6462,0,0,1,8.07588-13.952c2.235-1.94893,6.75244-5.20685,11.38035-5.74345,1.4777-.20665,2.84526-.3662,4.43418-.53867Q527.3203,474.41441,526.41186,474.30575Z" transform="translate(-173.72108 -358.88197)"/><path d="M794.87778,446.73346c-8.68774-19.4608-30.2789-31.56906-51.33678-30.55074-9.52237.17157-18.30751,4.25041-26.51649,8.73813-1.21635.65742-2.41871,1.34147-3.61712,2.03072,2.94213-1.11249,5.91494-2.1491,8.92684-3.0563a48.21549,48.21549,0,0,1,36.20047,1.47663c8.44863,3.83838,11.44349,6.02955,17.17887,12.22924,4.41338,4.66173,5.96534,6.96465,9.07429,14.06526a65.479,65.479,0,0,1,4.04565,12.30163c2.03736,12.67428-5.613,32.15051-19.51739,44.78452-17.19645,17.35923-44.065,18.67137-64.27323,10.64625-22.49073-10.0979-39.42727-29.21125-42.935-52.33707-1.64847-12.28468,2.69423-40.79717,10.61136-54.42277,3.0946-5.49878,5.24246-7.40788,11.03775-12.75267A84.73909,84.73909,0,0,1,704.07139,386.324c11.18053-5.2177,25.81225-8.68836,39.78979-10.48661-20.68729-.3323-42.32635,2.463-60.06828,13.82426-9.39716,5.95933-18.38,13.2612-22.92268,23.7088-6.00067,12.35723-8.45849,25.9962-9.85206,39.5618-3.29335,24.11086,8.3645,47.49606,26.46141,62.9774,7.70009,6.49917,16.14566,12.23472,25.67987,15.67,22.11531,7.9687,48.8004,6.764,67.79671-8.07131,17.93189-13.36658,30.60878-34.98259,29.80983-57.719C800.37674,459.04334,797.68753,452.7832,794.87778,446.73346Z" transform="translate(-173.72108 -358.88197)"/><path d="M703.34528,448.38884c-7.74762.192-7.72735,11.54259.00036,11.7556C711.09326,459.95242,711.07317,448.60193,703.34528,448.38884Z" transform="translate(-173.72108 -358.88197)"/><path d="M751.66674,446.15865c-7.74762.192-7.72753,11.5426.00018,11.75561C759.41472,457.72223,759.39463,446.37166,751.66674,446.15865Z" transform="translate(-173.72108 -358.88197)"/><path d="M733.08156,467.71735c-7.74762.192-7.72753,11.5426.00018,11.75561C740.82954,479.281,740.80945,467.93045,733.08156,467.71735Z" transform="translate(-173.72108 -358.88197)"/><path d="M744.52721,481.8018c-2.47791.83849-6.0875,3.67748-7.5643,4.87437-.11911-.07229-.22709-.13821-.28916-.17839a18.9893,18.9893,0,0,0-20.97483,1.84309c-6.30974,3.81327-10.708,13.2612-4.99294,19.37731,4.30952,4.60656,10.91918,4.93347,16.80021,5.64909-5.23671-1.85842-10.42714-2.80634-14.0353-7.32348-3.34734-4.071-.28557-9.67063,3.06357-11.877,4.13426-3.17613,8.93079-4.582,12.255-3.61829,2.90984.68468,2.44328.54082,4.26628,1.49115,3.80619,3.026,6.32822,1.5586,9.53493-1.3359a25.28313,25.28313,0,0,1,4.3888-2.94626c1.837-.90325,3.71829-1.48353,4.97536-.04233,4.38611,3.70914-1.20128,10.70535-6.80482,13.88049-5.29537,3.08994-10.289,4.72182-16.26243,6.94608,2.58122-.35543,5.159-.74916,7.7173-1.24693,9.11573-1.60488,21.47655-5.831,22.33451-16.59312C759.07929,482.97447,751.42136,478.324,744.52721,481.8018Z" transform="translate(-173.72108 -358.88197)"/><path d="M1022.82485,422.25887c-4.55253-8.90258-10.75646-17.86586-19.71255-22.74259-13.71-7.09124-30.62823-2.13143-41.439,8.004-.96055.9049-1.90326,1.82771-2.80336,2.79263A43.51382,43.51382,0,0,1,971.82509,403.32c8.86823-2.995,19.03591-2.92442,26.53764,1.841,5.19863,3.23731,7.26027,6.31648,11.4815,13.07955,3.42831,6.15388,3.93881,6.66579,5.517,12.94106,1.82927,9.545-2.09782,26.58182-7.37555,41.85019-8.22313,21.6543-21.71871,47.92793-42.90942,52.58674-4.90167.863-11.39627.39778-19.29636-1.7765-41.48131-10.79057-50.92759-59.02553-36.25362-101.06812,3.40536-10.5212,9.88477-24.68277,17.31284-34.22285,12.63049-14.74821,26.897-25.82871,46.85813-29.66909-5.51076.50059-11.082.86459-16.419,2.42673a76.33351,76.33351,0,0,0-20.15649,9.604c-11.41791,7.3568-21.29723,17.11588-27.68118,29.19-22.763,40.05576-26.21592,105.01486,20.70861,128.9285,11.0919,5.23066,23.81752,8.53461,36.10845,6.90956,23.43286-4.79771,37.70055-26.83,46.86325-47.25162a151.30189,151.30189,0,0,0,11.62816-36.70359C1026.67745,442.12552,1027.49432,431.50448,1022.82485,422.25887Z" transform="translate(-173.72108 -358.88197)"/><path d="M947.089,434.397c-1.96239-5.20894-8.14154-8.7584-12.68334-4.2157-.14369.12552-.70307.65072-1.12736,1.05469-3.005-2.10054-7.28967-.50273-9.27071,2.56009-1.52225,2.639-.99623,5.93572-.1356,8.71315a17.817,17.817,0,0,0,4.77929,6.46892,101.41137,101.41137,0,0,0,11.31717,8.9831,131.77478,131.77478,0,0,1-9.58336-11.51858c-2.09715-3.03656-2.96026-4.534-2.81112-8.3626.00809-.566.29926-1.66569.66013-1.85264,1.19144-.89,1.65156-.97558,1.98452-.60456a3.88949,3.88949,0,0,0,5.854-.02328c1.03305-1.01737,2.13861-3.36969,3.8526-2.99123,4.77566,1.30316,5.93852,8.55534,6.1998,13.03314.07812,2.36875-.02791,4.73908-.17886,7.103.13245-.39142.27184-.78185.39852-1.17583C948.23847,446.08184,949.0626,439.97931,947.089,434.397Z" transform="translate(-173.72108 -358.88197)"/><path d="M983.6118,419.61133c-2.65786-.4512-5.232.85683-7.24656,2.54407a7.21145,7.21145,0,0,0-1.45272-.98342c-2.92656-1.40251-7.48636-1.3139-9.153,1.90078-1.01538,2.08427-.82611,4.49663-.64741,6.74441a33.40227,33.40227,0,0,0,2.26248,9.74933c.83371,2.20137,2.67586,3.76152,4.41363,5.25544a105.00045,105.00045,0,0,0,8.76039,6.81518c-2.59989-3.2194-4.207-5.15618-6.5027-8.36509-1.06608-1.53587-2.36025-3.00559-2.791-4.80381a45.40708,45.40708,0,0,1-.62131-11.89761c.0109-.04823.02659-.12156.0474-.217.69943-.02692.93131.03559,2.03059,1.26394,1.64446,2.63994,5.35272,2.24885,6.97092-.68771,1.58583-1.69871,2.698-2.38964,3.71568-2.12746,2.49618,1.19961,3.36391,5.59095,3.58522,7.76755a35.7952,35.7952,0,0,1-1.443,14.67677c-.06689.246-.133.49217-.20034.73743a37.157,37.157,0,0,0,3.27142-6.1548C991.39347,434.88944,992.74246,422.16952,983.6118,419.61133Z" transform="translate(-173.72108 -358.88197)"/><path d="M961.04865,460.9819c-7.13343.1768-7.11477,10.62748.00033,10.82369C968.18241,471.62879,968.16391,461.178,961.04865,460.9819Z" transform="translate(-173.72108 -358.88197)"/><path d="M973.49846,486.24743c-2.69535,4.19687-6.55836,7.56415-11.13649,8.77269-3.33087.96228-6.726,1.56188-10.06231.448-4.27094-1.47517-7.10568-5.38632-10.2235-8.52066,2.219,4.75782,4.61777,10.05579,9.74884,12.24551,9.76007,4.04394,21.35058-2.72706,23.77689-12.7641.68556-1.99666,1.28227-4.02354,1.84578-6.057C976.17234,482.35758,974.865,484.32319,973.49846,486.24743Z" transform="translate(-173.72108 -358.88197)"/></svg>